<?xml version="1.0" encoding="UTF-8" standalone="no"?><!DOCTYPE svg PUBLIC "-//W3C//DTD SVG 1.1//EN" "http://www.w3.org/Graphics/SVG/1.1/DTD/svg11.dtd"><svg width="100%" height="100%" viewBox="0 0 3334 1638" version="1.1" xmlns="http://www.w3.org/2000/svg" xmlns:xlink="http://www.w3.org/1999/xlink" xml:space="preserve" xmlns:serif="http://www.serif.com/" style="fill-rule:evenodd;clip-rule:evenodd;stroke-linejoin:round;stroke-miterlimit:2;"><g><g><path d="M3284.06,576.443l-233.49,-0l0,-245.749c0,-74.251 -60.403,-134.661 -134.661,-134.661l-158.268,0c-12.526,0 -24.615,1.849 -36.126,5.065l0,-49.57c0,-74.251 -60.403,-134.661 -134.661,-134.661l-261.445,-0c-74.251,-0 -134.661,60.403 -134.661,134.661l-0,424.915l-1048.18,-0l0,-424.915c0,-74.251 -60.403,-134.661 -134.661,-134.661l-261.445,-0c-74.251,-0 -134.661,60.403 -134.661,134.661l0,49.57c-11.517,-3.216 -23.6,-5.065 -36.126,-5.065l-158.255,0c-74.251,0 -134.661,60.404 -134.661,134.661l-0,245.749l-233.496,-0c-27.213,-0 -49.264,22.057 -49.264,49.264l0,381.92c0,27.207 22.051,49.264 49.264,49.264l233.496,-0l-0,245.748c-0,74.251 60.403,134.661 134.661,134.661l158.261,0c12.526,0 24.616,-1.855 36.127,-5.065l-0,49.57c-0,74.251 60.403,134.662 134.661,134.662l261.445,-0c74.251,-0 134.661,-60.411 134.661,-134.662l-0,-424.914l1048.19,-0l-0,424.914c-0,74.251 60.41,134.662 134.661,134.662l261.445,-0c74.251,-0 134.661,-60.404 134.661,-134.662l0,-49.57c11.517,3.216 23.6,5.065 36.126,5.065l158.268,0c74.251,0 134.661,-60.403 134.661,-134.661l0,-245.748l233.49,-0c27.213,-0 49.264,-22.057 49.264,-49.264l-0,-381.92c-0.013,-27.207 -22.064,-49.264 -49.277,-49.264Zm-3001.3,381.919l-184.225,0l-0,-283.391l184.225,-0l-0,283.391Zm329.049,344.284c-0,19.915 -16.205,36.126 -36.127,36.126l-158.261,-0c-19.915,-0 -36.126,-16.205 -36.126,-36.126l-0,-971.958c-0,-19.922 16.211,-36.126 36.126,-36.126l158.261,-0c19.922,-0 36.127,16.204 36.127,36.126l-0,971.958Zm432.225,-1151.12l0,1330.28c0,19.922 -16.21,36.127 -36.126,36.127l-261.445,-0c-19.915,-0 -36.126,-16.205 -36.126,-36.127l0,-1330.28c0,-19.922 16.211,-36.126 36.126,-36.126l261.445,-0c19.916,-0 36.126,16.204 36.126,36.126Zm1146.72,806.834l-1048.18,0l0,-283.391l1048.18,-0l-0,283.391Zm432.239,-806.827l-0,1330.28c-0,19.922 -16.211,36.126 -36.127,36.126l-261.444,0c-19.916,0 -36.127,-16.204 -36.127,-36.126l0,-1330.28c0,-19.922 16.211,-36.127 36.127,-36.127l261.444,0c19.916,0 36.127,16.205 36.127,36.127Zm329.055,179.153l0,971.958c0,19.921 -16.211,36.126 -36.126,36.126l-158.268,-0c-19.915,-0 -36.126,-16.205 -36.126,-36.126l-0,-971.958c-0,-19.922 16.211,-36.126 36.126,-36.126l158.268,-0c19.915,-0 36.126,16.204 36.126,36.126Zm282.747,627.674l-184.219,0l0,-283.391l184.219,-0l-0,283.391Z" style="fill-rule:nonzero;"/></g></g></svg>